<?xml version="1.0" encoding="UTF-8" standalone="no"?>
<svg
   viewBox="0 0 128 128"
   version="1.1"
   id="svg2"
   sodipodi:docname="favicon.svg"
   inkscape:version="1.4.2 (ebf0e940d0, 2025-05-08)"
   xmlns:inkscape="http://www.inkscape.org/namespaces/inkscape"
   xmlns:sodipodi="http://sodipodi.sourceforge.net/DTD/sodipodi-0.dtd"
   xmlns="http://www.w3.org/2000/svg"
   xmlns:svg="http://www.w3.org/2000/svg">
  <path d="M 63.940416,4.9999773e-5 A 63.999999,63.999999 0 0 0 -7.4413825e-5,63.97555 a 63.999999,63.999999 0 0 0 0,0.0245 63.999999,63.999999 0 0 0 0,0.0245 A 63.999999,63.999999 0 0 0 63.999916,128.00006 63.999999,63.999999 0 0 0 99.291926,117.39005 l 7.055994,7.05601 0.005,-0.005 a 12.799999,12.799999 0 0 0 8.847,3.5585 v 3.7e-4 h 12.80001 v -18.10247 l -3.55152,-3.5515 -7.05651,-7.05699 A 63.999999,63.999999 0 0 0 128.00008,63.99993 63.999999,63.999999 0 0 0 64.059566,-6.0000227e-5 Z M 63.999916,25.60005 a 38.4,38.4 0 0 1 38.400004,38.39999 38.4,38.4 0 0 1 -3.749014,16.5485 l -25.59949,-25.59949 -0.001,10e-4 a 12.799999,12.799999 0 0 0 -9.05003,-3.74997 h -3.7e-4 a 12.799999,12.799999 0 0 0 -12.8,12.8 12.799999,12.799999 0 0 0 3.7555,9.0445 l -0.004,0.005 25.6005,25.6005 a 38.4,38.4 0 0 1 -16.5515,3.7505 38.4,38.4 0 0 1 -38.39999,-38.40015 38.4,38.4 0 0 1 38.4,-38.39999 z" />
  <style>path{fill:#000}@media (prefers-color-scheme:dark){path{fill:#fff}}</style>
</svg>
