<?xml version="1.0" encoding="UTF-8" standalone="no"?>
<!-- Created with Inkscape (http://www.inkscape.org/) -->

<svg
   width="1549.9999"
   height="500.00003"
   viewBox="0 0 410.10414 132.29168"
   version="1.1"
   id="svg5"
   sodipodi:docname="quidlogo.svg"
   inkscape:version="1.4.2 (ebf0e940d0, 2025-05-08)"
   xmlns:inkscape="http://www.inkscape.org/namespaces/inkscape"
   xmlns:sodipodi="http://sodipodi.sourceforge.net/DTD/sodipodi-0.dtd"
   xmlns="http://www.w3.org/2000/svg"
   xmlns:svg="http://www.w3.org/2000/svg">
  <sodipodi:namedview
     id="namedview7"
     pagecolor="#103589"
     bordercolor="#666666"
     borderopacity="1.0"
     inkscape:showpageshadow="2"
     inkscape:pageopacity="0"
     inkscape:pagecheckerboard="0"
     inkscape:deskcolor="#d1d1d1"
     inkscape:document-units="mm"
     showgrid="false"
     showguides="true"
     inkscape:zoom="0.34591151"
     inkscape:cx="819.57377"
     inkscape:cy="245.72759"
     inkscape:window-width="1503"
     inkscape:window-height="930"
     inkscape:window-x="0"
     inkscape:window-y="0"
     inkscape:window-maximized="1"
     inkscape:current-layer="layer1">
    <inkscape:grid
       type="xygrid"
       id="grid1775"
       spacingx="13.229167"
       spacingy="13.229167"
       empspacing="2"
       originx="0"
       originy="0"
       units="mm" />
  </sodipodi:namedview>
  <defs
     id="defs2" />
  <g
     inkscape:label="Layer 1"
     inkscape:groupmode="layer"
     id="layer1">
    <path
       id="path2605"
       style="fill:#ffffff;stroke-width:0"
       d="M 66.145833 0 A 66.145836 66.145836 0 0 0 0 66.145833 A 66.145836 66.145836 0 0 0 66.145833 132.29167 A 66.145836 66.145836 0 0 0 102.62113 121.32593 L 109.9137 128.61851 L 109.91887 128.61334 A 13.229166 13.229166 0 0 0 119.0625 132.29115 L 119.0625 132.29167 L 132.29167 132.29167 L 151.00112 132.29167 L 128.62109 109.91164 L 121.32799 102.61803 A 66.145836 66.145836 0 0 0 132.29167 66.145833 A 66.145836 66.145836 0 0 0 66.145833 0 z M 145.52083 0 L 145.52083 79.375 A 52.916664 52.916664 0 0 0 198.4375 132.29167 A 52.916664 52.916664 0 0 0 251.35417 79.375 L 251.35417 0 L 224.89583 0 L 224.89583 33.552474 L 224.89583 79.375 A 26.458332 26.458332 0 0 1 198.4375 105.83333 A 26.458332 26.458332 0 0 1 171.97917 79.375 L 171.97917 33.547823 L 171.97917 0 L 145.52083 0 z M 264.58333 0 L 264.58333 132.29167 L 291.04167 132.29167 L 291.04167 0 L 264.58333 0 z M 304.27083 0 L 304.27083 26.458333 L 304.27083 66.145833 L 304.27083 132.29167 L 330.72917 132.29167 L 343.95833 132.29167 C 380.48966 132.29167 410.10417 102.67717 410.10417 66.145833 C 410.10417 29.6145 380.48966 3.3137081e-06 343.95833 0 L 304.27083 0 z M 66.145833 26.458333 A 39.6875 39.6875 0 0 1 105.83333 66.145833 A 39.6875 39.6875 0 0 1 101.95863 83.249182 L 75.500818 56.791366 L 75.499784 56.792399 A 13.229166 13.229166 0 0 0 66.14635 52.916667 L 66.145833 52.916667 A 13.229166 13.229166 0 0 0 52.916667 66.145833 A 13.229166 13.229166 0 0 0 56.798083 75.493583 L 56.793433 75.498234 L 83.252283 101.95708 A 39.6875 39.6875 0 0 1 66.145833 105.83333 A 39.6875 39.6875 0 0 1 26.458333 66.145833 A 39.6875 39.6875 0 0 1 66.145833 26.458333 z M 330.72917 26.458333 L 343.95833 26.458333 C 365.87713 26.458333 383.64583 44.227032 383.64583 66.145833 C 383.64583 88.064633 365.87713 105.83333 343.95833 105.83333 L 330.72917 105.83333 L 330.72917 26.458333 z " />
  </g>
</svg>
